<?xml version="1.0" encoding="UTF-8"?>
<!DOCTYPE svg PUBLIC "-//W3C//DTD SVG 1.0//EN" "http://www.w3.org/TR/2001/REC-SVG-20010904/DTD/svg10.dtd">
<!-- Creator: CorelDRAW (Not for commercial use) -->
<svg xmlns="http://www.w3.org/2000/svg" xml:space="preserve" width="1024px" height="340px" version="1.0" style="shape-rendering:geometricPrecision; text-rendering:geometricPrecision; image-rendering:optimizeQuality; fill-rule:evenodd; clip-rule:evenodd"
viewBox="0 0 1024 340"
 xmlns:xlink="http://www.w3.org/1999/xlink"
 xmlns:xodm="http://www.corel.com/coreldraw/odm/2003">
 <defs>
  <style type="text/css">
   <![CDATA[
    .fil0 {fill:none}
    .fil3 {fill:#0076F3;fill-rule:nonzero}
    .fil4 {fill:#33CC66;fill-rule:nonzero}
    .fil2 {fill:#FF5356;fill-rule:nonzero}
    .fil1 {fill:#FFD000;fill-rule:nonzero}
    .fil5 {fill:white;fill-rule:nonzero}
   ]]>
  </style>
 </defs>
 <g id="Layer_x0020_1">
  <metadata id="CorelCorpID_0Corel-Layer"/>
  <rect class="fil0" width="1024" height="340"/>
  <path class="fil1" d="M825.09 212.06c0,7.15 5.81,12.96 13.1,12.96 7.15,0 13.1,-5.81 13.1,-12.96 0,-7.29 -5.95,-13.1 -13.1,-13.1 -7.29,0 -13.1,5.81 -13.1,13.1z"/>
  <path class="fil2" d="M856 135.11c0,7.15 5.8,13.11 13.1,13.11 7.15,0 13.1,-5.96 13.1,-13.11 0,-7.29 -5.95,-13.1 -13.1,-13.1 -7.3,0 -13.1,5.81 -13.1,13.1z"/>
  <g id="_35943159712">
   <g>
    <path class="fil3" d="M228.5 114.3l-6.44 6.44 -13.2 -12.88 6.44 -6.44c1.29,-1.35 3.48,-1.42 4.96,0l8.24 7.92c1.35,1.29 1.42,3.48 0,4.96z"/>
    <polygon class="fil3" points="166.04,150.3 205.13,111.28 218.33,124.48 179.3,163.56 166.04,163.56 "/>
   </g>
   <path class="fil1" d="M166.04 176.44l25.76 0 0 12.88 -12.88 0 0 25.75 -12.88 0 0 -38.63zm25.76 12.88l12.88 0 0 -12.88 25.75 0 0 12.88 -25.75 0 0 12.87 -12.88 0 0 -12.87zm12.88 12.88l25.75 -0.01 0 38.64 -25.75 0 0 -12.88 12.87 0 0 -12.88 -12.87 0 0 -12.87zm0 25.75l-25.76 0 0 12.88 -12.88 0 0 -12.88 12.88 0 0 -12.87 25.76 -0.01 0 12.88z"/>
   <g>
    <path class="fil2" d="M88.77 99.17l64.39 0 0 64.39 -64.39 0 0 -64.39zm12.88 12.88l0 38.63 38.63 0 0 -38.63 -38.63 0z"/>
    <polygon class="fil2" points="114.53,124.93 127.41,124.93 127.41,137.81 114.53,137.81 "/>
   </g>
   <g>
    <path class="fil4" d="M88.77 176.44l64.39 0 0 64.39 -64.39 0 0 -64.39zm12.88 12.88l0 38.63 38.63 0 0 -38.63 -38.63 0z"/>
    <polygon class="fil4" points="114.53,202.19 127.41,202.19 127.41,215.07 114.53,215.07 "/>
   </g>
  </g>
  <path class="fil5" d="M263.4 133.43l25.67 0 0 31.73c2.54,-2.67 5.44,-4.65 8.66,-5.99 3.22,-1.32 6.8,-2.01 10.73,-2.01 8.06,0 14.75,2.92 20.04,8.72 5.29,5.83 7.94,14.16 7.94,25.02 0,7.25 -1.22,13.65 -3.63,19.15 -2.41,5.52 -5.76,9.64 -10.02,12.37 -4.27,2.72 -9,4.09 -14.22,4.09 -4.46,0 -8.53,-0.96 -12.25,-2.86 -2.79,-1.51 -5.82,-4.33 -9.12,-8.44l0 9.81 -23.8 0 0 -91.59zm659.13 40l12.7 0 0 -18.42 -12.7 0 0 -26.67 -23.65 0 0 26.67 -12.7 0 0 18.42 12.7 0 0 51.59 23.65 0 0 -51.59zm-41.52 51.59l0 -70 -23.81 0 0 70 23.81 0zm-58.4 -26.87l-50.96 0c0.45,4.09 1.56,7.12 3.3,9.13 2.46,2.87 5.68,4.3 9.62,4.3 2.5,0 4.88,-0.62 7.12,-1.87 1.39,-0.79 2.86,-2.18 4.44,-4.18l25.06 2.3c-3.84,6.67 -8.45,11.45 -13.87,14.35 -5.41,2.88 -13.17,4.33 -23.3,4.33 -8.79,0 -15.7,-1.24 -20.75,-3.71 -5.04,-2.47 -9.21,-6.42 -12.52,-11.81 -3.3,-5.4 -4.97,-11.73 -4.97,-19.03 0,-10.36 3.33,-18.76 9.96,-25.16 6.65,-6.42 15.82,-9.64 27.53,-9.64 9.49,0 17,1.45 22.48,4.33 5.5,2.86 9.7,7.04 12.56,12.48 2.88,5.46 4.3,12.56 4.3,21.3l0 2.88zm-25.84 -12.18c-0.51,-4.92 -1.83,-8.44 -3.97,-10.55 -2.15,-2.14 -4.97,-3.2 -8.46,-3.2 -4.06,0 -7.28,1.62 -9.71,4.82 -1.53,2 -2.51,4.97 -2.92,8.93l25.06 0zm-63.29 -52.54l0 91.59 -23.8 0 0 -9.81c-3.35,4.16 -6.38,6.97 -9.13,8.44 -3.67,1.9 -7.74,2.86 -12.24,2.86 -9.04,0 -15.95,-3.43 -20.73,-10.3 -4.75,-6.87 -7.14,-15.23 -7.14,-25.06 0,-11 2.62,-19.4 7.91,-25.22 5.27,-5.85 11.96,-8.77 20.07,-8.77 3.96,0 7.55,0.69 10.79,2.01 3.22,1.34 6.08,3.32 8.59,5.99l0 -31.73 25.68 0zm-25.51 58.24c0,-5.23 -1.08,-9.11 -3.3,-11.67 -2.2,-2.56 -4.99,-3.84 -8.36,-3.84 -2.97,0 -5.44,1.24 -7.44,3.69 -2.01,2.45 -3.01,6.57 -3.01,12.37 0,5.42 1.04,9.38 3.09,11.9 2.07,2.52 4.63,3.77 7.66,3.77 3.26,0 5.97,-1.25 8.12,-3.79 2.18,-2.56 3.24,-6.7 3.24,-12.43zm-165.54 7.42l24.16 2.75c-1.32,5.03 -3.52,9.4 -6.54,13.09 -3.05,3.69 -6.94,6.55 -11.67,8.59 -4.71,2.03 -10.73,3.05 -18.02,3.05 -7.04,0 -12.9,-0.66 -17.57,-1.96 -4.69,-1.32 -8.72,-3.43 -12.09,-6.37 -3.39,-2.95 -6.04,-6.38 -7.93,-10.35 -1.92,-3.94 -2.88,-9.19 -2.88,-15.73 0,-6.83 1.15,-12.52 3.49,-17.06 1.71,-3.33 4.03,-6.32 7,-8.96 2.96,-2.64 5.99,-4.63 9.13,-5.91 4.94,-2.04 11.3,-3.07 19.04,-3.07 10.83,0 19.08,1.94 24.78,5.82 5.67,3.86 9.68,9.54 11.96,17l-23.93 3.18c-0.74,-2.84 -2.11,-4.97 -4.09,-6.4 -1.98,-1.45 -4.63,-2.15 -7.98,-2.15 -4.2,0 -7.61,1.51 -10.21,4.52 -2.6,3.02 -3.9,7.59 -3.9,13.71 0,5.46 1.3,9.59 3.88,12.43 2.58,2.84 5.86,4.24 9.87,4.24 3.33,0 6.12,-0.85 8.4,-2.55 2.26,-1.71 3.97,-4.33 5.1,-7.87zm-108.22 -40.41l23.8 0 0 10.85c2.3,-4.69 4.67,-7.93 7.1,-9.7 2.43,-1.77 5.44,-2.67 9.02,-2.67 3.75,0 7.85,1.18 12.3,3.5l-7.87 18.13c-2.98,-1.26 -5.37,-1.88 -7.12,-1.88 -3.33,0 -5.9,1.39 -7.74,4.11 -2.62,3.89 -3.94,11.14 -3.94,21.76l0 22.24 -25.55 0 0 -66.34zm-62.42 21.47l-24.29 -2.56c0.92,-4.24 2.24,-7.59 3.97,-10.02 1.73,-2.43 4.2,-4.54 7.46,-6.33 2.33,-1.31 5.55,-2.31 9.62,-3.01 4.07,-0.7 8.49,-1.07 13.24,-1.07 7.62,0 13.76,0.43 18.36,1.28 4.63,0.86 8.49,2.65 11.56,5.35 2.18,1.88 3.88,4.53 5.14,7.96 1.24,3.45 1.86,6.72 1.86,9.85l0 29.3c0,3.11 0.21,5.57 0.59,7.34 0.41,1.77 1.26,4.03 2.61,6.78l-23.87 0c-0.96,-1.71 -1.58,-3.01 -1.87,-3.91 -0.3,-0.89 -0.58,-2.3 -0.88,-4.22 -3.32,3.22 -6.65,5.5 -9.94,6.87 -4.5,1.83 -9.72,2.75 -15.67,2.75 -7.91,0 -13.92,-1.83 -18.04,-5.5 -4.09,-3.65 -6.14,-8.17 -6.14,-13.54 0,-5.06 1.47,-9.19 4.43,-12.44 2.97,-3.26 8.41,-5.67 16.36,-7.24 9.55,-1.92 15.74,-3.27 18.57,-4.04 2.82,-0.76 5.83,-1.79 8.98,-3.02 0,-3.14 -0.64,-5.31 -1.92,-6.57 -1.3,-1.24 -3.56,-1.88 -6.82,-1.88 -4.16,0 -7.29,0.68 -9.36,2.01 -1.62,1.04 -2.95,3 -3.95,5.86zm22.05 13.37c-3.5,1.26 -7.14,2.37 -10.92,3.33 -5.16,1.36 -8.44,2.73 -9.81,4.05 -1.42,1.39 -2.13,2.94 -2.13,4.69 0,2 0.71,3.63 2.09,4.91 1.41,1.25 3.46,1.89 6.16,1.89 2.84,0 5.46,-0.68 7.92,-2.04 2.43,-1.39 4.15,-3.07 5.18,-5.04 1.02,-1.98 1.51,-4.56 1.51,-7.72l0 -4.07zm-104.94 -1.85c0,5.69 1.07,9.83 3.2,12.38 2.16,2.56 4.86,3.84 8.17,3.84 3.03,0 5.59,-1.25 7.65,-3.77 2.05,-2.52 3.1,-6.76 3.1,-12.71 0,-5.25 -1.03,-9.11 -3.03,-11.56 -2.03,-2.45 -4.48,-3.69 -7.36,-3.69 -3.45,0 -6.27,1.28 -8.46,3.84 -2.18,2.56 -3.27,6.44 -3.27,11.67z"/>
  <path class="fil4" d="M575.16 192.03c0,-10.11 3.42,-18.47 10.24,-25.02 6.84,-6.56 16.06,-9.85 27.68,-9.85 13.28,0 23.33,3.86 30.11,11.56 5.46,6.21 8.19,13.86 8.19,22.95 0,10.19 -3.39,18.55 -10.15,25.07 -6.76,6.51 -16.12,9.77 -28.09,9.77 -10.66,0 -19.27,-2.71 -25.86,-8.12 -8.09,-6.7 -12.12,-15.49 -12.12,-26.36zm25.49 -0.07c0,5.93 1.19,10.3 3.6,13.12 2.39,2.83 5.4,4.26 9.02,4.26 3.67,0 6.67,-1.4 9.02,-4.2 2.37,-2.79 3.54,-7.25 3.54,-13.43 0,-5.74 -1.19,-10.02 -3.56,-12.84 -2.37,-2.79 -5.31,-4.2 -8.81,-4.2 -3.71,0 -6.78,1.43 -9.19,4.27 -2.41,2.85 -3.62,7.2 -3.62,13.02z"/>
 </g>
</svg>
